<?xml version="1.0" standalone="no"?>
<!DOCTYPE svg PUBLIC "-//W3C//DTD SVG 20010904//EN"
 "http://www.w3.org/TR/2001/REC-SVG-20010904/DTD/svg10.dtd">
<svg version="1.0" xmlns="http://www.w3.org/2000/svg"
 width="503.000000pt" height="159.000000pt" viewBox="0 0 503.000000 159.000000"
 preserveAspectRatio="xMidYMid meet">

<g transform="translate(0.000000,159.000000) scale(0.100000,-0.100000)"
fill="#000000" stroke="none">
<path d="M789 1457 c-34 -23 -159 -191 -159 -214 0 -17 -40 -16 -84 2 -34 14
-37 14 -58 -7 -18 -18 -47 -25 -152 -40 -72 -11 -135 -24 -141 -29 -14 -15 30
-49 63 -49 14 0 54 5 89 11 35 6 66 9 69 6 3 -3 -7 -33 -21 -67 -15 -35 -60
-153 -101 -264 -80 -214 -96 -246 -119 -246 -8 0 -31 23 -51 50 -20 28 -38 50
-40 50 -2 0 -4 -24 -4 -54 0 -47 4 -58 31 -85 39 -39 94 -43 127 -8 29 30 135
268 176 392 9 28 40 97 68 155 46 92 57 105 81 108 33 4 33 3 3 -56 -47 -93
-116 -357 -116 -444 0 -34 14 -58 36 -58 6 0 27 26 47 58 32 52 184 242 193
242 6 0 -25 -71 -42 -98 -25 -38 -54 -132 -54 -172 0 -41 28 -85 61 -95 29 -9
61 15 100 77 l34 53 6 -44 c4 -33 14 -52 38 -73 56 -50 91 -33 191 94 40 51
80 101 88 110 7 9 12 25 10 35 -2 13 -25 -8 -81 -79 -89 -112 -143 -156 -165
-134 -11 11 -11 24 -1 75 10 52 16 64 37 72 38 15 101 68 117 100 30 56 17 91
-38 104 -58 15 -115 -33 -159 -133 -22 -50 -108 -156 -141 -173 -19 -11 -19
-9 -13 45 4 32 26 98 48 148 34 76 38 94 29 114 -13 30 -47 31 -81 1 -33 -28
-119 -130 -153 -182 -33 -49 -33 -46 -2 54 23 73 33 88 96 153 114 118 191
245 225 370 19 72 18 104 -6 128 -26 26 -39 25 -81 -3z m58 -76 c-2 -21 -17
-65 -31 -98 -25 -56 -29 -59 -57 -55 -16 2 -29 6 -29 8 0 3 12 28 26 57 64
126 101 162 91 88z m-122 -121 c-9 -16 -18 -30 -21 -30 -2 0 2 14 11 30 9 17
18 30 21 30 2 0 -2 -13 -11 -30z m26 -102 c-32 -57 -124 -179 -129 -173 -2 2
5 29 17 60 26 69 26 80 0 35 -15 -26 -18 -29 -13 -10 10 37 53 120 62 118 4 0
14 1 22 5 70 27 75 23 41 -35z m-285 -91 c-7 -18 -21 -47 -30 -63 -15 -26 -16
-27 -10 -4 8 30 42 100 49 100 3 0 -1 -15 -9 -33z m145 -58 c-5 -13 -10 -19
-10 -12 -1 15 10 45 15 40 3 -2 0 -15 -5 -28z m421 -111 c9 -26 -6 -59 -40
-93 -20 -19 -40 -35 -44 -35 -10 0 8 45 38 98 25 43 39 52 46 30z m-181 -224
c-9 -28 -9 -29 -10 -3 -1 14 2 29 6 32 11 12 13 2 4 -29z"/>
<path d="M672 1155 c-17 -37 -14 -45 4 -12 9 16 14 31 11 33 -2 2 -9 -7 -15
-21z"/>
<path d="M2936 1249 c-51 -60 -156 -318 -172 -424 -5 -39 -14 -53 -68 -100
-62 -56 -91 -69 -82 -37 3 9 10 36 15 58 6 23 25 58 41 79 32 41 39 85 15 105
-30 25 -61 -2 -154 -135 -27 -38 -41 -52 -41 -39 0 35 20 91 46 129 30 44 25
65 -14 65 -26 0 -30 -6 -57 -80 -24 -67 -33 -80 -51 -80 -21 0 -22 3 -13 32
18 63 11 112 -18 140 -43 39 -66 43 -101 14 -16 -14 -35 -39 -42 -55 -7 -17
-20 -33 -30 -36 -60 -19 -137 -140 -127 -201 8 -49 35 -83 77 -95 60 -18 97 9
212 150 10 11 27 21 38 21 16 0 20 -7 20 -33 0 -34 15 -57 36 -57 7 0 33 31
58 68 24 37 54 77 66 87 l22 20 -20 -35 c-11 -19 -23 -59 -27 -87 -6 -49 -5
-55 23 -83 17 -16 37 -30 46 -30 8 0 34 19 57 43 l41 42 -7 -41 c-5 -31 -2
-45 10 -58 23 -23 52 -20 68 7 8 12 23 37 35 56 l20 35 15 -35 c22 -51 60 -83
91 -75 55 14 162 104 211 180 34 51 4 40 -53 -19 -32 -33 -77 -73 -100 -89
l-43 -29 -25 24 c-13 14 -27 41 -30 60 -4 33 -3 35 44 57 112 51 177 125 153
171 -18 32 -55 36 -95 11 -45 -27 -137 -128 -162 -177 -21 -42 -60 -97 -52
-73 3 8 13 40 21 71 9 31 31 73 48 95 49 61 178 259 195 299 17 40 13 61 -17
99 -33 42 -79 36 -123 -15z m111 -14 c3 -9 -2 -35 -11 -58 -19 -51 -106 -201
-140 -242 l-25 -30 14 48 c8 26 11 55 8 64 -5 11 -3 14 6 8 10 -6 11 -2 6 15
-4 14 -3 20 3 16 5 -3 20 21 32 55 24 63 73 139 90 139 6 0 13 -7 17 -15z
m-689 -313 c2 -18 -4 -57 -13 -88 -15 -53 -17 -55 -48 -52 -28 3 -32 7 -35 35
-3 29 24 97 51 131 18 23 42 9 45 -26z m712 -4 c0 -15 -123 -138 -139 -138
-15 0 8 33 69 103 40 45 70 60 70 35z m-790 -153 c17 -4 30 -10 30 -15 0 -5
-15 -28 -33 -51 -55 -73 -127 -101 -127 -49 0 12 14 55 31 96 l31 74 19 -24
c11 -14 33 -27 49 -31z"/>
<path d="M3903 1238 c-22 -24 -38 -51 -88 -146 l-30 -57 -60 -2 c-162 -7 -202
-33 -50 -33 52 0 95 -1 95 -2 -2 -27 -75 -197 -92 -214 -31 -30 -135 -87 -141
-77 -3 4 -10 41 -17 82 -10 59 -10 78 1 97 11 21 10 27 -4 41 -15 15 -18 15
-42 -1 -14 -9 -30 -28 -35 -41 -10 -25 1 -123 21 -182 10 -31 9 -38 -4 -47 -8
-6 -35 -26 -61 -43 -25 -18 -55 -47 -65 -64 -17 -28 -18 -36 -7 -63 15 -38 48
-56 102 -56 78 0 124 59 124 162 l1 63 56 33 c31 18 57 31 59 30 1 -2 -7 -49
-19 -104 -24 -113 -19 -139 28 -170 23 -15 27 -15 49 -1 13 9 63 68 112 132
87 115 89 116 96 88 12 -45 52 -78 97 -78 48 0 96 36 159 116 34 44 52 59 71
60 14 0 35 4 46 8 10 4 33 3 50 -3 16 -6 31 -11 32 -11 1 -1 -14 -38 -33 -84
-41 -94 -41 -140 1 -167 23 -15 27 -15 59 5 36 23 102 90 131 135 13 20 20 24
26 14 5 -7 6 -23 2 -35 -7 -31 18 -67 57 -83 57 -23 86 1 233 194 39 53 44 66
25 66 -7 0 -40 -36 -72 -81 -62 -83 -117 -135 -151 -141 -18 -3 -20 3 -19 42
1 75 11 98 52 119 52 26 122 104 122 135 0 49 -58 78 -110 56 -36 -15 -83 -71
-108 -131 -36 -82 -189 -265 -207 -247 -2 2 16 53 40 113 48 119 47 135 -9
135 -17 0 -37 4 -45 9 -15 10 -15 10 17 73 5 10 -33 19 -52 12 -21 -8 -49 -61
-40 -75 8 -14 -14 -29 -44 -29 -21 0 -22 3 -15 38 20 92 2 140 -57 161 -35 12
-68 -10 -106 -70 -13 -22 -31 -39 -39 -39 -16 0 -57 -48 -173 -198 -44 -56
-97 -122 -118 -145 l-39 -42 -3 32 c-4 42 45 209 106 358 l48 120 50 3 c64 3
94 10 94 22 0 6 -27 10 -60 10 -33 0 -60 2 -60 5 0 13 45 94 77 138 20 26 32
54 29 62 -9 24 -69 19 -93 -7z m301 -295 c7 -18 -10 -117 -25 -145 -12 -22
-52 -23 -69 -3 -10 12 -9 25 5 67 25 79 73 123 89 81z m566 -66 c0 -25 -9 -42
-40 -72 -22 -21 -42 -36 -45 -33 -13 13 56 138 76 138 5 0 9 -15 9 -33z m-639
-114 l30 -8 -32 -49 c-33 -49 -80 -86 -111 -86 -28 0 -23 60 12 137 l30 66 21
-27 c11 -14 34 -29 50 -33z m-370 10 c-12 -20 -14 -14 -5 12 4 9 9 14 11 11 3
-2 0 -13 -6 -23z m826 -105 c-3 -7 -5 -2 -5 12 0 14 2 19 5 13 2 -7 2 -19 0
-25z m-1134 -141 c-12 -19 -31 -35 -51 -41 -69 -20 -58 34 18 92 l45 35 3 -27
c2 -15 -5 -41 -15 -59z"/>
<path d="M1475 1211 c-70 -42 -128 -149 -107 -196 14 -30 42 -33 42 -5 0 57
101 189 134 177 20 -8 20 -23 1 -77 -8 -23 -15 -53 -15 -66 0 -13 -5 -24 -11
-24 -5 0 -8 -4 -5 -9 4 -5 2 -11 -3 -13 -5 -1 -42 -82 -82 -178 -76 -184 -93
-256 -66 -279 29 -24 47 -7 80 74 33 81 144 264 222 365 65 84 146 153 145
123 0 -5 -21 -46 -46 -93 -125 -237 -161 -344 -134 -395 23 -42 42 -30 93 61
89 155 223 324 258 324 22 0 15 -29 -28 -115 -90 -178 -133 -339 -113 -415 26
-96 107 -129 172 -71 40 36 33 46 -21 31 -48 -13 -77 -7 -90 19 -17 31 9 109
146 435 39 93 17 166 -51 166 -25 0 -44 -14 -101 -72 -39 -40 -95 -111 -124
-158 -66 -106 -58 -75 25 99 37 77 64 147 64 166 0 34 -31 75 -58 75 -23 0
-137 -120 -200 -209 -29 -41 -52 -70 -52 -66 0 4 16 58 36 119 39 119 41 171
8 207 -22 25 -79 25 -119 0z"/>
<path d="M1250 190 l0 -60 38 2 37 1 -33 4 c-27 4 -33 8 -30 26 2 15 12 24 33
28 l30 7 -32 1 c-26 1 -33 5 -33 20 0 15 8 21 33 24 31 4 31 4 -5 5 l-38 2 0
-60z"/>
<path d="M1374 233 c20 -55 42 -103 46 -103 7 0 50 113 45 118 -2 3 -12 -14
-21 -37 -9 -22 -20 -41 -24 -41 -4 0 -15 18 -24 40 -15 38 -35 59 -22 23z"/>
<path d="M1520 190 l0 -60 38 2 c36 1 36 1 5 5 -27 4 -33 9 -33 28 0 18 6 25
28 28 l27 4 -27 2 c-21 1 -28 6 -28 20 0 15 8 21 33 24 31 4 31 4 -5 5 l-38 2
0 -60z"/>
<path d="M1640 191 c0 -34 4 -61 10 -61 6 0 10 12 10 28 l1 27 24 -27 c29 -33
42 -37 21 -6 -14 20 -14 24 1 41 23 25 6 51 -36 55 l-31 3 0 -60z m65 24 c0
-13 -8 -21 -22 -23 -19 -3 -23 1 -23 23 0 22 4 26 23 23 14 -2 22 -10 22 -23z"/>
<path d="M1770 231 c5 -11 15 -23 20 -26 6 -3 11 -23 11 -43 2 -34 2 -34 6 -7
3 16 13 41 24 56 27 38 23 50 -4 16 l-23 -28 -14 26 c-7 14 -17 25 -22 25 -5
0 -4 -9 2 -19z"/>
<path d="M1902 243 c13 -3 18 -18 21 -61 l3 -57 2 57 c2 44 6 58 20 61 9 3 -1
5 -23 5 -22 0 -32 -2 -23 -5z"/>
<path d="M2013 190 c0 -36 2 -53 4 -37 3 21 10 27 29 27 19 0 24 -5 24 -25 0
-14 5 -25 10 -25 6 0 10 27 10 60 0 33 -4 60 -10 60 -5 0 -10 -11 -10 -25 0
-20 -5 -25 -24 -25 -19 0 -26 6 -29 28 -2 15 -4 -2 -4 -38z"/>
<path d="M2143 190 c0 -36 2 -50 4 -32 2 17 2 47 0 65 -2 17 -4 3 -4 -33z"/>
<path d="M2212 190 c1 -60 1 -62 7 -21 l6 45 28 -42 c15 -23 29 -42 32 -42 3
0 5 27 5 60 0 66 -17 83 -22 23 l-3 -38 -27 40 -28 40 2 -65z"/>
<path d="M2356 234 c-36 -35 -7 -104 42 -104 22 0 62 32 62 50 0 6 -15 9 -32
9 -24 -1 -27 -3 -10 -6 26 -5 28 -16 7 -33 -23 -19 -64 -4 -71 27 -4 14 -2 33
3 42 14 22 57 26 76 7 23 -23 33 -19 12 4 -22 24 -67 26 -89 4z"/>
<path d="M2581 247 c-1 -5 8 -20 19 -34 11 -14 21 -40 21 -57 l1 -31 7 35 c4
19 15 49 25 65 l18 30 -25 -27 -24 -26 -21 26 c-12 15 -21 23 -21 19z"/>
<path d="M2742 243 c-22 -9 -33 -50 -20 -78 22 -49 101 -42 114 10 13 52 -39
90 -94 68z m71 -24 c30 -42 -16 -94 -62 -70 -23 13 -29 59 -9 79 19 19 55 14
71 -9z"/>
<path d="M2880 209 c0 -68 24 -92 74 -73 12 5 16 19 14 63 l-1 56 -6 -55 c-6
-50 -8 -55 -31 -55 -23 0 -25 4 -28 53 -4 61 -22 71 -22 11z"/>
<path d="M3102 188 c1 -60 1 -61 7 -18 l6 45 29 -42 c16 -24 30 -43 32 -43 2
0 3 28 2 63 -1 59 -1 60 -7 17 l-6 -45 -29 43 c-16 23 -30 42 -32 42 -2 0 -3
-28 -2 -62z"/>
<path d="M3230 190 l0 -60 43 2 c36 1 38 2 10 5 -27 4 -33 9 -33 28 0 18 6 25
28 28 l27 4 -27 2 c-21 1 -28 6 -28 20 0 15 8 21 33 24 28 3 26 4 -10 5 l-43
2 0 -60z"/>
<path d="M3360 190 l0 -60 38 2 37 1 -33 4 c-27 4 -33 8 -30 26 2 15 12 24 33
28 l30 7 -32 1 c-26 1 -33 5 -33 20 0 15 8 21 33 24 31 4 31 4 -5 5 l-38 2 0
-60z"/>
<path d="M3490 190 c0 -57 1 -60 25 -60 31 0 65 33 65 63 0 31 -29 57 -63 57
-26 0 -27 -2 -27 -60z m62 33 c24 -22 23 -49 -4 -67 -38 -27 -48 -20 -48 34 0
55 16 65 52 33z"/>
</g>
</svg>
